<svg width="32" height="32" viewBox="0 0 32 32" fill="none" xmlns="http://www.w3.org/2000/svg">
<path fill-rule="evenodd" clip-rule="evenodd" d="M16 32C12.8355 32 9.74207 31.0616 7.11088 29.3035C4.4797 27.5454 2.42894 25.0466 1.21793 22.1229C0.00693254 19.1993 -0.309921 15.9823 0.307443 12.8786C0.924806 9.77486 2.44866 6.92394 4.6863 4.6863C6.92394 2.44866 9.77486 0.924806 12.8786 0.307443C15.9823 -0.309921 19.1993 0.00693254 22.1229 1.21793C25.0466 2.42894 27.5454 4.4797 29.3035 7.11088C31.0616 9.74207 32 12.8355 32 16C32 20.2435 30.3143 24.3131 27.3137 27.3137C24.3131 30.3143 20.2435 32 16 32ZM16 2.46154C13.3223 2.46154 10.7048 3.25556 8.47844 4.74319C6.25205 6.23081 4.51679 8.34523 3.4921 10.8191C2.4674 13.2929 2.1993 16.015 2.72168 18.6412C3.0159 20.1204 3.55344 21.5317 4.30517 22.8206C7.32566 20.0133 11.3021 18.4527 15.4337 18.4615H16.566C18.8383 18.4667 21.0849 18.9417 23.1648 19.8567C24.8307 20.5895 26.3608 21.5919 27.6947 22.8208C28.8997 20.7548 29.5385 18.4016 29.5385 16C29.5385 12.4094 28.1121 8.96582 25.5731 6.42687C23.0342 3.88791 19.5906 2.46154 16 2.46154ZM26.2504 24.8442C24.8747 26.4386 23.1406 27.6962 21.1809 28.5079C18.7071 29.5326 15.985 29.8007 13.3588 29.2783C10.7326 28.7559 8.32026 27.4665 6.42687 25.5731C6.18913 25.3354 5.96091 25.0895 5.74254 24.836C5.75252 24.8283 5.76239 24.8204 5.77216 24.8123C8.36522 22.3101 11.8303 20.9153 15.4337 20.9231H16.566C18.4992 20.9258 20.4107 21.3298 22.1797 22.1094C23.6893 22.7747 25.067 23.7012 26.2504 24.8442ZM16 17.2308C14.7829 17.2308 13.5931 16.8699 12.5811 16.1937C11.5692 15.5175 10.7804 14.5564 10.3146 13.4319C9.84886 12.3074 9.72699 11.0701 9.96444 9.87638C10.2019 8.68265 10.788 7.58614 11.6486 6.72551C12.5092 5.86488 13.6058 5.27878 14.7995 5.04133C15.9932 4.80388 17.2305 4.92575 18.355 5.39152C19.4795 5.85729 20.4406 6.64604 21.1168 7.65804C21.793 8.67003 22.1539 9.85982 22.1539 11.0769C22.1539 12.709 21.5055 14.2743 20.3515 15.4284C19.1974 16.5824 17.6321 17.2308 16 17.2308ZM16 7.38462C15.2698 7.38462 14.5559 7.60117 13.9487 8.00689C13.3415 8.41261 12.8683 8.98927 12.5888 9.66395C12.3093 10.3386 12.2362 11.081 12.3787 11.7973C12.5211 12.5135 12.8728 13.1714 13.3892 13.6878C13.9056 14.2042 14.5635 14.5558 15.2797 14.6983C15.9959 14.8408 16.7383 14.7676 17.413 14.4882C18.0877 14.2087 18.6644 13.7355 19.0701 13.1283C19.4758 12.5211 19.6923 11.8072 19.6923 11.0769C19.6923 10.0977 19.3033 9.15852 18.6109 8.46607C17.9185 7.77363 16.9793 7.38462 16 7.38462Z" fill="black"/>
</svg>
