<svg width="32" height="33" viewBox="0 0 32 33" fill="none" xmlns="http://www.w3.org/2000/svg">
<g clip-path="url(#clip0_149_26)">
<path d="M6.73279 9.29033C7.30573 9.86181 8.22766 9.87054 8.79914 9.29905C9.36625 8.73194 9.37062 7.81437 8.78896 7.23271L6.75315 5.1969C6.17876 4.62251 5.25974 4.61379 4.6868 5.18672C4.11823 5.75384 4.11387 6.66995 4.69698 7.25307L6.73279 9.29033Z" fill="white"/>
<path d="M30.5327 15.0459H27.6535C26.8406 15.0459 26.1833 15.6915 26.1833 16.5C26.1833 17.3041 26.8275 17.9542 27.6535 17.9542H30.5327C31.3456 17.9542 31.9999 17.31 31.9999 16.5C31.9999 15.6973 31.3543 15.0459 30.5327 15.0459Z" fill="white"/>
<path d="M5.8166 16.5C5.8166 15.6973 5.17096 15.0459 4.34791 15.0459H1.46724C0.655821 15.0459 0 15.6915 0 16.5C0 17.3041 0.644188 17.9542 1.46724 17.9542H4.34791C5.15932 17.9542 5.8166 17.31 5.8166 16.5Z" fill="white"/>
<path d="M16 7.77074C11.1824 7.77074 7.27515 11.678 7.27515 16.4956C7.27515 21.3132 11.1824 25.2205 16 25.2205C20.8162 25.2205 24.7249 21.3132 24.7249 16.4956C24.7249 11.678 20.8162 7.77074 16 7.77074ZM16 22.3122C12.7878 22.3122 10.1834 19.7079 10.1834 16.4956C10.1834 13.2834 12.7878 10.679 16 10.679C19.2123 10.679 21.8166 13.2834 21.8166 16.4956C21.8166 19.7079 19.2123 22.3122 16 22.3122Z" fill="white"/>
<path d="M6.73265 23.7111L4.69684 25.7469C4.12245 26.3213 4.11373 27.2403 4.68666 27.8133C5.25523 28.3804 6.17135 28.3848 6.75301 27.8031L8.78881 25.7673C9.3632 25.1929 9.37193 24.2739 8.79899 23.7009C8.23042 23.1309 7.31431 23.1295 6.73265 23.7111Z" fill="white"/>
<path d="M25.2673 9.29033L27.3032 7.25307C27.8775 6.67868 27.8834 5.75966 27.3133 5.18672C26.7433 4.6196 25.8286 4.61524 25.247 5.1969L23.2112 7.23271C22.6368 7.8071 22.6295 8.72757 23.201 9.29906C23.771 9.86617 24.6857 9.87054 25.2673 9.29033Z" fill="white"/>
<path d="M16 26.6834C15.1959 26.6834 14.5459 27.329 14.5459 28.1535V31.0328C14.5459 31.8456 15.1915 32.5 16 32.5C16.8042 32.5 17.4542 31.8573 17.4542 31.0328V28.1535C17.4542 27.3407 16.81 26.6834 16 26.6834Z" fill="white"/>
<path d="M25.2673 23.7111C24.6929 23.1367 23.7738 23.1295 23.2009 23.7009C22.6338 24.271 22.628 25.1856 23.2111 25.7673L25.2469 27.8031C25.8213 28.3775 26.7403 28.3833 27.3132 27.8133C27.8818 27.2462 27.8862 26.3286 27.3031 25.7469L25.2673 23.7111Z" fill="white"/>
<path d="M16 6.3166C16.8042 6.3166 17.4542 5.67241 17.4542 4.84791V1.96869C17.4542 1.15728 16.81 0.5 16 0.5C15.1959 0.5 14.5459 1.14564 14.5459 1.96869V4.84791C14.5459 5.65932 15.1915 6.3166 16 6.3166Z" fill="white"/>
</g>
<defs>
<clipPath id="clip0_149_26">
<rect width="32" height="32" fill="white" transform="translate(0 0.5)"/>
</clipPath>
</defs>
</svg>
