<svg width="80" height="80" viewBox="0 0 80 80" fill="none" xmlns="http://www.w3.org/2000/svg">
<path d="M67.55 57.05C67.55 57.1707 67.598 57.2864 67.6833 57.3717C67.7686 57.4571 67.8843 57.505 68.005 57.505C68.1257 57.505 68.2414 57.4571 68.3268 57.3717C68.4121 57.2864 68.46 57.1707 68.46 57.05C68.46 56.9293 68.4121 56.8136 68.3268 56.7283C68.2414 56.6429 68.1257 56.595 68.005 56.595C67.8843 56.595 67.7686 56.6429 67.6833 56.7283C67.598 56.8136 67.55 56.9293 67.55 57.05ZM57.505 67.415C57.505 67.655 57.6004 67.8852 57.7701 68.0549C57.9398 68.2246 58.17 68.32 58.41 68.32C58.65 68.32 58.8802 68.2246 59.0499 68.0549C59.2197 67.8852 59.315 67.655 59.315 67.415C59.315 67.175 59.2197 66.9448 59.0499 66.7751C58.8802 66.6053 58.65 66.51 58.41 66.51C58.17 66.51 57.9398 66.6053 57.7701 66.7751C57.6004 66.9448 57.505 67.175 57.505 67.415ZM43.965 72.75C43.965 73.1107 44.1083 73.4566 44.3634 73.7117C44.6184 73.9667 44.9643 74.11 45.325 74.11C45.6857 74.11 46.0316 73.9667 46.2867 73.7117C46.5417 73.4566 46.685 73.1107 46.685 72.75C46.685 72.5714 46.6498 72.3945 46.5815 72.2295C46.5131 72.0645 46.413 71.9146 46.2867 71.7883C46.1604 71.662 46.0105 71.5619 45.8455 71.4935C45.6805 71.4252 45.5036 71.39 45.325 71.39C45.1464 71.39 44.9696 71.4252 44.8046 71.4935C44.6396 71.5619 44.4896 71.662 44.3634 71.7883C44.2371 71.9146 44.1369 72.0645 44.0685 72.2295C44.0002 72.3945 43.965 72.5714 43.965 72.75ZM29.39 72.035C29.39 72.515 29.5807 72.9754 29.9202 73.3149C30.2596 73.6543 30.72 73.845 31.2 73.845C31.6801 73.845 32.1404 73.6543 32.4799 73.3149C32.8193 72.9754 33.01 72.515 33.01 72.035C33.01 71.5549 32.8193 71.0946 32.4799 70.7551C32.1404 70.4157 31.6801 70.225 31.2 70.225C30.72 70.225 30.2596 70.4157 29.9202 70.7551C29.5807 71.0946 29.39 71.5549 29.39 72.035ZM16.46 65.4C16.46 65.6974 16.5186 65.992 16.6324 66.2668C16.7463 66.5416 16.9131 66.7913 17.1234 67.0016C17.3337 67.2119 17.5834 67.3788 17.8582 67.4926C18.133 67.6064 18.4276 67.665 18.725 67.665C19.0225 67.665 19.317 67.6064 19.5918 67.4926C19.8666 67.3788 20.1163 67.2119 20.3266 67.0016C20.5369 66.7913 20.7038 66.5416 20.8176 66.2668C20.9314 65.992 20.99 65.6974 20.99 65.4C20.99 65.1025 20.9314 64.808 20.8176 64.5332C20.7038 64.2584 20.5369 64.0087 20.3266 63.7984C20.1163 63.5881 19.8666 63.4212 19.5918 63.3074C19.317 63.1936 19.0225 63.135 18.725 63.135C18.4276 63.135 18.133 63.1936 17.8582 63.3074C17.5834 63.4212 17.3337 63.5881 17.1234 63.7984C16.9131 64.0087 16.7463 64.2584 16.6324 64.5332C16.5186 64.808 16.46 65.1025 16.46 65.4ZM7.50502 54.12C7.50502 54.8414 7.79159 55.5332 8.30169 56.0433C8.81179 56.5534 9.50363 56.84 10.225 56.84C10.9464 56.84 11.6383 56.5534 12.1483 56.0433C12.6584 55.5332 12.945 54.8414 12.945 54.12C12.945 53.3986 12.6584 52.7068 12.1483 52.1967C11.6383 51.6866 10.9464 51.4 10.225 51.4C9.50363 51.4 8.81179 51.6866 8.30169 52.1967C7.79159 52.7068 7.50502 53.3986 7.50502 54.12ZM4.14502 40.27C4.14502 40.6863 4.22701 41.0985 4.38632 41.4831C4.54563 41.8677 4.77913 42.2172 5.07349 42.5115C5.36785 42.8059 5.71731 43.0394 6.10191 43.1987C6.48652 43.358 6.89873 43.44 7.31502 43.44C7.73131 43.44 8.14352 43.358 8.52813 43.1987C8.91273 43.0394 9.26219 42.8059 9.55655 42.5115C9.85091 42.2172 10.0844 41.8677 10.2437 41.4831C10.403 41.0985 10.485 40.6863 10.485 40.27C10.485 39.4293 10.151 38.623 9.55655 38.0285C8.96206 37.434 8.15576 37.1 7.31502 37.1C6.47428 37.1 5.66798 37.434 5.07349 38.0285C4.479 38.623 4.14502 39.4293 4.14502 40.27ZM6.91002 26.51C6.91002 26.986 7.00378 27.4574 7.18596 27.8972C7.36813 28.337 7.63515 28.7366 7.97176 29.0733C8.30837 29.4099 8.70799 29.6769 9.14779 29.8591C9.5876 30.0412 10.059 30.135 10.535 30.135C11.4964 30.135 12.4185 29.7531 13.0983 29.0733C13.7781 28.3934 14.16 27.4714 14.16 26.51C14.16 25.5486 13.7781 24.6265 13.0983 23.9467C12.4185 23.2669 11.4964 22.885 10.535 22.885C9.57361 22.885 8.65158 23.2669 7.97176 23.9467C7.29194 24.6265 6.91002 25.5486 6.91002 26.51ZM15.205 15.415C15.205 15.9508 15.3106 16.4813 15.5156 16.9763C15.7206 17.4713 16.0212 17.9211 16.4 18.3C16.7789 18.6789 17.2287 18.9794 17.7237 19.1844C18.2187 19.3895 18.7492 19.495 19.285 19.495C19.8208 19.495 20.3514 19.3895 20.8464 19.1844C21.3414 18.9794 21.7912 18.6789 22.17 18.3C22.5489 17.9211 22.8494 17.4713 23.0544 16.9763C23.2595 16.4813 23.365 15.9508 23.365 15.415C23.365 14.3329 22.9352 13.2951 22.17 12.53C21.4049 11.7648 20.3671 11.335 19.285 11.335C18.2029 11.335 17.1652 11.7648 16.4 12.53C15.6349 13.2951 15.205 14.3329 15.205 15.415ZM27.385 9.05999C27.385 9.65488 27.5022 10.2439 27.7298 10.7935C27.9575 11.3432 28.2912 11.8425 28.7118 12.2632C29.1325 12.6838 29.6319 13.0175 30.1815 13.2452C30.7311 13.4728 31.3201 13.59 31.915 13.59C33.1164 13.59 34.2687 13.1127 35.1182 12.2632C35.9678 11.4136 36.445 10.2614 36.445 9.05999C36.445 7.85856 35.9678 6.70634 35.1182 5.8568C34.2687 5.00726 33.1164 4.52999 31.915 4.52999C30.7136 4.52999 29.5614 5.00726 28.7118 5.8568C27.8623 6.70634 27.385 7.85856 27.385 9.05999ZM41.065 8.66499C41.065 9.9871 41.5902 11.2551 42.5251 12.1899C43.46 13.1248 44.7279 13.65 46.05 13.65C47.3721 13.65 48.6401 13.1248 49.5749 12.1899C50.5098 11.2551 51.035 9.9871 51.035 8.66499C51.035 7.34289 50.5098 6.07493 49.5749 5.14007C48.6401 4.2052 47.3721 3.67999 46.05 3.67999C44.7279 3.67999 43.46 4.2052 42.5251 5.14007C41.5902 6.07493 41.065 7.34289 41.065 8.66499ZM53.59 14.3C53.59 15.7414 54.1626 17.1239 55.1819 18.1431C56.2012 19.1624 57.5836 19.735 59.025 19.735C60.4665 19.735 61.8489 19.1624 62.8681 18.1431C63.8874 17.1239 64.46 15.7414 64.46 14.3C64.46 12.8585 63.8874 11.4761 62.8681 10.4569C61.8489 9.43761 60.4665 8.86499 59.025 8.86499C57.5836 8.86499 56.2012 9.43761 55.1819 10.4569C54.1626 11.4761 53.59 12.8585 53.59 14.3ZM62.49 24.885C62.49 25.6585 62.6424 26.4244 62.9384 27.139C63.2344 27.8536 63.6682 28.5029 64.2152 29.0499C64.7621 29.5968 65.4114 30.0306 66.126 30.3266C66.8406 30.6226 67.6065 30.775 68.38 30.775C69.1535 30.775 69.9194 30.6226 70.634 30.3266C71.3486 30.0306 71.9979 29.5968 72.5449 29.0499C73.0918 28.5029 73.5257 27.8536 73.8217 27.139C74.1177 26.4244 74.27 25.6585 74.27 24.885C74.27 24.1115 74.1177 23.3456 73.8217 22.631C73.5257 21.9164 73.0918 21.2671 72.5449 20.7201C71.9979 20.1732 71.3486 19.7393 70.634 19.4433C69.9194 19.1473 69.1535 18.995 68.38 18.995C67.6065 18.995 66.8406 19.1473 66.126 19.4433C65.4114 19.7393 64.7621 20.1732 64.2152 20.7201C63.6682 21.2671 63.2344 21.9164 62.9384 22.631C62.6424 23.3456 62.49 24.1115 62.49 24.885ZM66.03 38.595C66.03 39.4282 66.1941 40.2533 66.513 41.0231C66.8319 41.7929 67.2992 42.4924 67.8884 43.0816C68.4776 43.6708 69.1771 44.1381 69.9469 44.457C70.7167 44.7759 71.5418 44.94 72.375 44.94C74.0578 44.94 75.6717 44.2715 76.8616 43.0816C78.0515 41.8917 78.72 40.2778 78.72 38.595C78.72 36.9122 78.0515 35.2983 76.8616 34.1084C75.6717 32.9185 74.0578 32.25 72.375 32.25C70.6922 32.25 69.0783 32.9185 67.8884 34.1084C66.6985 35.2983 66.03 36.9122 66.03 38.595Z" fill="#6063C0"/>
</svg>
